<svg id="Слой_1" data-name="Слой 1" xmlns="http://www.w3.org/2000/svg" viewBox="0 0 23.04 22.15"><defs><style>.cls-1{fill:#fff;fill-rule:evenodd;}</style></defs><title>arrow</title><path id="Прямоугольник_скругл._углы_1_копия_4" data-name="Прямоугольник скругл. углы 1 копия 4" class="cls-1" d="M11.22,20.42,21.36,10.28a1,1,0,0,1,1.42,0,1,1,0,0,1,0,1.41l0,0L12.64,21.84a1,1,0,0,1-1.42,0,1,1,0,0,1,0-1.41Zm.5-.05-10-10a1,1,0,0,0-1.4,1.4l10,10a1,1,0,0,0,1.4-1.41Zm-.5-10L21.36.28A1,1,0,1,1,22.78,1.7L12.64,11.84a1,1,0,0,1-1.42,0,1,1,0,0,1,0-1.41Z" transform="translate(-0.04 0.01)"/></svg>